<?xml version="1.0" standalone="no"?>
<!DOCTYPE svg PUBLIC "-//W3C//DTD SVG 20010904//EN"
 "http://www.w3.org/TR/2001/REC-SVG-20010904/DTD/svg10.dtd">
<svg version="1.0" xmlns="http://www.w3.org/2000/svg"
 width="150.000000pt" height="150.000000pt" viewBox="0 0 150.000000 150.000000"
 preserveAspectRatio="xMidYMid meet">
<metadata>
Created by potrace 1.11, written by Peter Selinger 2001-2013
</metadata>
<g transform="translate(0.000000,150.000000) scale(0.100000,-0.100000)"
fill="#000000" stroke="none">
<path d="M684 1076 l-59 -105 -127 -3 -127 -3 60 -103 c32 -57 59 -108 59
-115 -1 -7 -27 -57 -60 -112 l-59 -100 128 -3 c103 -2 130 -6 135 -17 3 -8 31
-58 62 -111 l56 -95 21 38 c12 22 40 71 62 111 l40 71 126 3 127 3 -59 100
c-32 55 -58 106 -59 113 0 7 27 59 60 115 l60 102 -128 3 -127 3 -60 104 c-32
58 -62 105 -65 105 -4 0 -33 -47 -66 -104z m82 -73 c20 -27 17 -33 -16 -33
-34 0 -35 2 -18 30 16 24 17 24 34 3z m-196 -119 c0 -12 -21 -44 -29 -44 -4 0
-13 11 -19 25 -11 24 -10 25 18 25 17 0 30 -3 30 -6z m300 -65 l42 -70 -42
-70 -41 -70 -82 3 c-70 3 -83 6 -92 23 -5 11 -23 42 -38 68 l-28 47 32 57 c47
86 43 83 130 83 l78 0 41 -71z m108 46 c-13 -30 -24 -32 -38 -6 -15 28 -13 31
20 31 28 0 29 -1 18 -25z m-408 -247 c0 -4 -14 -8 -31 -8 -30 0 -31 5 -5 38 8
11 12 11 23 -4 7 -10 13 -21 13 -26z m408 17 c11 -24 10 -25 -18 -25 -33 0
-35 3 -20 31 14 26 25 24 38 -6z m-198 -112 c-1 -12 -29 -47 -34 -42 -2 2 -9
14 -15 27 -11 20 -10 22 19 22 16 0 30 -3 30 -7z"/>
</g>
</svg>
